<svg xmlns="http://www.w3.org/2000/svg" id="svg0.27578509337059154" viewBox="0 0 1024 768"><path d="M0 0 C337.92 0 675.84 0 1024 0 C1024 253.44 1024 506.88 1024 768 C686.08 768 348.16 768 0 768 C0 514.56 0 261.12 0 0 Z " transform="translate(0,0)" style="fill: #FDFEFD;"/><path d="M0 0 C1.20233276 0.00483398 1.20233276 0.00483398 2.42895508 0.00976562 C10.56141784 0.19570545 18.07609764 2.04721844 25.8125 4.4375 C25.8125 5.0975 25.8125 5.7575 25.8125 6.4375 C26.6375 6.64375 27.4625 6.85 28.3125 7.0625 C40.09834417 11.69265307 47.31764139 22.32574728 52.5625 33.4140625 C64.3583179 61.94519704 56.93505709 94.97807997 45.61035156 122.34228516 C39.56393649 136.29906586 32.20259668 150.99394875 20.8125 161.4375 C20.1525 161.4375 19.4925 161.4375 18.8125 161.4375 C18.8125 162.0975 18.8125 162.7575 18.8125 163.4375 C11.95531968 169.82051359 4.71922269 173.88652741 -4.6953125 173.87109375 C-10.79209203 172.81036878 -15.32868571 168.97772717 -20 165.1875 C-21.23134114 164.19868342 -22.46311224 163.21040204 -23.6953125 162.22265625 C-24.28989258 161.7445752 -24.88447266 161.26649414 -25.49707031 160.77392578 C-27.74526272 158.99654201 -30.06351704 157.3188244 -32.375 155.625 C-36.50460982 152.37811347 -38.63077129 149.59809531 -39.5625 144.30859375 C-39.93922601 139.67015473 -39.33266005 137.03363189 -36.3125 133.4375 C-33.37373593 130.37096358 -31.11552051 129.15944009 -26.875 128.6875 C-19.92417451 128.67741172 -16.02715581 133.24338428 -11.265625 137.73828125 C-8.50833198 140.30581178 -5.65242582 141.91770469 -2.1875 143.4375 C16.05179548 130.21401078 24.77067205 102.59980406 28.4309082 81.28027344 C30.39098653 66.67812883 30.43058757 50.65339929 22.1875 37.9375 C17.44685954 32.41260544 11.99550176 29.59626472 4.73828125 28.99609375 C-7.44292707 28.45573252 -17.02436407 31.08395841 -26.1875 39.4375 C-29.84741552 43.23147836 -33.23264745 47.19088695 -36.4375 51.375 C-38.7264397 54.07267893 -40.82754451 55.17606678 -44.30078125 55.84375 C-48.94149241 56.04157783 -51.57685043 55.6148017 -55.1875 52.5625 C-58.52074177 49.3681433 -59.36711277 47.30358268 -59.5 42.6875 C-59.55607422 41.42679687 -59.55607422 41.42679687 -59.61328125 40.140625 C-59.04566277 36.53702877 -57.3347891 34.33443441 -55.1875 31.4375 C-76.40209964 34.82632566 -94.01452502 41.39074207 -108.1875 58.4375 C-117.04026084 71.08585933 -122.5538628 85.13244416 -122.41455078 100.62915039 C-122.41484283 101.49853241 -122.41513489 102.36791443 -122.41543579 103.26364136 C-122.41405529 106.10425199 -122.39855508 108.9445921 -122.3828125 111.78515625 C-122.37907781 113.76769365 -122.37623299 115.75023291 -122.37423706 117.73277283 C-122.36663651 122.92606795 -122.34701906 128.11924946 -122.3248291 133.3125 C-122.30429325 138.62172916 -122.29521885 143.93097686 -122.28515625 149.24023438 C-122.26376955 159.63937256 -122.22967721 170.0384268 -122.1875 180.4375 C-121.85016846 179.81818604 -121.51283691 179.19887207 -121.1652832 178.56079102 C-119.61057205 175.70698503 -118.05528931 172.85349093 -116.5 170 C-115.96955078 169.02611328 -115.43910156 168.05222656 -114.89257812 167.04882812 C-113.32693857 164.17688809 -111.7583436 161.30659669 -110.1875 158.4375 C-109.71376953 157.57181396 -109.24003906 156.70612793 -108.75195312 155.81420898 C-108.31431641 155.01958252 -107.87667969 154.22495605 -107.42578125 153.40625 C-107.04333252 152.71080078 -106.66088379 152.01535156 -106.2668457 151.29882812 C-104.50324389 148.25750258 -103.13129227 146.42136001 -100.1875 144.4375 C-95.50689654 143.49265769 -91.179111 143.29197549 -86.953125 145.72265625 C-84.51583529 147.77219532 -82.6177331 149.57703379 -81.1875 152.4375 C-81.01953125 154.42578125 -81.01953125 154.42578125 -81 156.75 C-80.98582031 157.50925781 -80.97164062 158.26851562 -80.95703125 159.05078125 C-81.22227602 161.79763806 -82.06450196 163.92961899 -83.1875 166.4375 C-82.38828125 166.46328125 -81.5890625 166.4890625 -80.765625 166.515625 C-64.3306938 167.36437732 -49.178539 173.96122783 -37.1875 185.4375 C-37.1875 186.0975 -37.1875 186.7575 -37.1875 187.4375 C-36.5275 187.4375 -35.8675 187.4375 -35.1875 187.4375 C-16.68566902 209.8689234 -15.58219159 233.36048311 -15.9128418 261.19989014 C-15.96165413 265.75309027 -15.97944184 270.30651264 -16.00265503 274.85990143 C-16.04098632 281.71954937 -16.11779918 288.5777774 -16.1875 295.4375 C1.9625 295.4375 20.1125 295.4375 38.8125 295.4375 C38.76609375 291.17585938 38.7196875 286.91421875 38.671875 282.5234375 C38.64613358 279.1157732 38.6244487 275.70813653 38.60549927 272.3004303 C38.58441556 268.70838772 38.55626281 265.11672543 38.51074219 261.52490234 C38.46713808 258.0624581 38.44333257 254.60038159 38.43299103 251.13768387 C38.42205179 249.18007518 38.39084872 247.22261352 38.35931396 245.26522827 C38.35650423 234.09794286 38.35650423 234.09794286 42.8125 229.4375 C43.44807831 228.73914536 44.08365662 228.04079071 44.73849487 227.3212738 C49.43414277 224.44374493 53.87824214 224.87177646 59.28466797 224.90405273 C60.44458252 224.89543716 61.60449707 224.88682159 62.79956055 224.87794495 C66.63482972 224.85523793 70.46937094 224.86203378 74.3046875 224.87109375 C76.29719434 224.86718279 78.28970157 224.86326125 80.28220475 224.85779434 C86.54645532 224.84080436 92.81046226 224.84435073 99.07470703 224.86108398 C105.5261213 224.87799503 111.97685842 224.86218365 118.4281987 224.8298611 C123.97660908 224.80312085 129.52480926 224.79590134 135.07327759 224.80437618 C138.38293015 224.80929387 141.69208706 224.80504017 145.00170517 224.78658867 C148.69548495 224.76915501 152.38782106 224.78367922 156.08154297 224.80639648 C157.17060944 224.79470428 158.2596759 224.78301208 159.38174438 224.77096558 C165.07511086 224.84214824 169.04645472 225.26582847 173.46843433 229.03810692 C177.2778546 233.004339 178.18744129 236.07179531 178.15307617 241.51293945 C178.15284958 242.71380692 178.15262299 243.91467438 178.15238953 245.15193176 C178.12916374 247.08186226 178.12916374 247.08186226 178.10546875 249.05078125 C178.09986869 250.38884505 178.09560053 251.72691502 178.09260559 253.06498718 C178.08118892 256.57501412 178.05174987 260.08466456 178.01849365 263.59454346 C177.98772372 267.18081478 177.9739208 270.76714916 177.95898438 274.35351562 C177.92847066 281.38184217 177.86974459 288.40913687 177.8125 295.4375 C196.2925 295.4375 214.7725 295.4375 233.8125 295.4375 C233.77207617 274.00868899 233.71511251 252.58012499 233.62859726 231.15145493 C233.58893836 221.1997631 233.55647952 211.24814884 233.54150391 201.29638672 C233.52841876 192.61342616 233.50128116 183.93063724 233.45788693 175.24777341 C233.43542507 170.65840548 233.41958002 166.06924801 233.42061615 161.47982025 C233.41989183 126.29268208 230.36519973 94.66792705 205.8125 67.4375 C205.06484375 66.59574219 204.3171875 65.75398438 203.546875 64.88671875 C186.17275772 46.39076278 160.76812077 35.79865468 135.55273438 35.00805664 C126.16228134 34.78050247 116.76729856 34.83163498 107.375 34.875 C101.73946308 34.89623876 96.10450187 34.90064722 90.46897697 34.87449837 C88.23845911 34.87116409 86.0090844 34.89222908 83.77870178 34.91490173 C82.41179155 34.91239106 81.0448827 34.90883161 79.67797852 34.90405273 C78.49333511 34.91025131 77.30869171 34.91644989 76.08815002 34.9228363 C70.87964155 34.15111825 67.81693596 31.60053111 64.4375 27.6875 C62.44632549 23.70515099 61.94812859 20.80301215 62.8125 16.4375 C65.08951652 12.05213485 67.72267334 9.17958534 71.8125 6.4375 C74.93234253 5.94302368 74.93234253 5.94302368 78.47607422 5.95166016 C79.12570633 5.94786346 79.77533844 5.94406677 80.44465637 5.94015503 C82.58599692 5.9327668 84.7259679 5.95412796 86.8671875 5.9765625 C88.37110231 5.97895101 89.87502015 5.97985139 91.37893677 5.9793396 C94.5347153 5.9824661 97.69003912 5.99900154 100.84570312 6.02587891 C104.84730944 6.05956603 108.84841007 6.06751537 112.85014153 6.06598854 C115.96130005 6.06653902 119.07235273 6.0776176 122.18347549 6.09199142 C123.6559278 6.09826552 125.12839188 6.10227574 126.60085678 6.10377884 C141.61846794 6.13584991 155.42531853 7.89596333 169.8125 12.4375 C170.77285156 12.70046875 171.73320313 12.9634375 172.72265625 13.234375 C186.59748666 17.28040533 199.56542812 25.51680535 210.8125 34.4375 C212.19501953 35.51644531 212.19501953 35.51644531 213.60546875 36.6171875 C242.83523779 59.92036888 256.16163976 91.25325669 261.93133545 127.37976074 C263.79557778 139.05225294 265.90743 150.26853492 269.8125 161.4375 C270.04582031 162.12473145 270.27914063 162.81196289 270.51953125 163.52001953 C275.48769363 178.07580542 281.47796134 190.93480886 294.95703125 199.17578125 C296.8125 200.4375 296.8125 200.4375 297.8125 202.4375 C297.90858608 204.26878771 297.94232579 206.10369959 297.9375 207.9375 C297.94007813 208.9171875 297.94265625 209.896875 297.9453125 210.90625 C297.8125 213.4375 297.8125 213.4375 296.8125 215.4375 C296.1525 215.4375 295.4925 215.4375 294.8125 215.4375 C294.4721875 216.365625 294.4721875 216.365625 294.125 217.3125 C292.34272462 220.19808871 291.08338842 220.58422476 287.8125 221.4375 C283.6675069 222.05924896 281.29745289 222.25778481 277.61328125 220.22265625 C273.25342441 216.98890554 269.62652487 213.22918322 266.02734375 209.1796875 C265.23320068 208.28878418 264.43905762 207.39788086 263.62084961 206.47998047 C263.02409424 205.80596191 262.42733887 205.13194336 261.8125 204.4375 C261.81030016 205.2641085 261.81030016 205.2641085 261.80805588 206.10741615 C261.77097156 219.52875737 261.71168367 232.94984324 261.62859726 246.37098122 C261.58908619 252.86142616 261.55691531 259.35173469 261.54150391 265.84228516 C261.52636155 272.10589729 261.49195825 278.36913447 261.44419098 284.6325798 C261.42935233 287.02234005 261.42145757 289.41215382 261.42061615 291.80195999 C261.41825233 295.14914184 261.39121783 298.49528259 261.35839844 301.84228516 C261.3634288 302.83059326 261.36845917 303.81890137 261.37364197 304.8371582 C261.28703751 310.54515366 260.67473176 313.93628509 256.8125 318.4375 C251.54769433 323.07554309 248.30127044 323.59761344 241.43481445 323.64624023 C240.5679451 323.65602402 239.70107574 323.6658078 238.80793762 323.67588806 C235.93056785 323.7058739 233.05324474 323.72723837 230.17578125 323.74609375 C229.19342184 323.75266558 228.21106243 323.7592374 227.19893456 323.76600838 C221.9973024 323.79861879 216.79569085 323.8230634 211.59399414 323.8425293 C207.28997947 323.86033296 202.98662113 323.89513582 198.68286133 323.94506836 C193.48686375 324.00528511 188.29147418 324.03600756 183.09514427 324.04570198 C181.11639525 324.05425689 179.13766248 324.07307589 177.15911293 324.1024456 C174.38441055 324.14140952 171.61206978 324.14238848 168.8371582 324.13452148 C168.02390076 324.15452209 167.21064331 324.17452271 166.3727417 324.19512939 C160.98337697 324.12675312 158.17349956 322.77150378 154.22178936 319.11612034 C151.026979 315.31074594 150.56516552 312.29244345 150.58544922 307.38378906 C150.58569092 306.14580566 150.58593262 304.90782227 150.58618164 303.63232422 C150.59641357 302.33568848 150.60664551 301.03905273 150.6171875 299.703125 C150.61920166 298.50800293 150.62121582 297.31288086 150.62329102 296.08154297 C150.63375565 291.61682294 150.6616782 287.15215762 150.6875 282.6875 C150.72875 272.705 150.77 262.7225 150.8125 252.4375 C123.0925 252.4375 95.3725 252.4375 66.8125 252.4375 C66.97059012 271.86851056 66.97059012 271.86851056 67.17285156 291.29907227 C67.18453845 293.74234315 67.19473028 296.18562184 67.203125 298.62890625 C67.22358887 299.88860229 67.24405273 301.14829834 67.26513672 302.44616699 C67.26787187 309.33396141 67.05217355 313.88903627 62.8125 319.4375 C58.10109608 323.72059447 53.3954128 323.59456488 47.30541992 323.61450195 C46.43679825 323.62107315 45.56817657 323.62764435 44.67323303 323.63441467 C41.7964774 323.65413781 38.91977393 323.66580761 36.04296875 323.67578125 C35.06027826 323.67985678 34.07758778 323.6839323 33.06511879 323.68813133 C27.86462235 323.7089871 22.66415226 323.7232914 17.46362305 323.73266602 C12.0933887 323.74373406 6.7235683 323.77814004 1.35348034 323.81783772 C-2.77724477 323.84398506 -6.90787091 323.85235615 -11.03867149 323.85594749 C-13.01820359 323.8608177 -14.99773114 323.87244402 -16.97718239 323.89098549 C-19.7492008 323.91533852 -22.52014365 323.91441902 -25.29223633 323.9074707 C-26.51515884 323.92668579 -26.51515884 323.92668579 -27.76278687 323.94628906 C-33.00962299 323.89842553 -36.1735959 323.11852812 -40.1875 319.4375 C-43.87271579 314.22037328 -44.76515678 309.38426021 -44.65405273 303.11645508 C-44.65635895 302.32662231 -44.65866516 301.53678955 -44.66104126 300.72302246 C-44.66365541 299.02125489 -44.65730586 297.31945402 -44.64278984 295.61774635 C-44.62072809 292.91218799 -44.62467781 290.20773716 -44.63526917 287.50212097 C-44.65683985 280.7811461 -44.6397028 274.06042185 -44.61376953 267.33947754 C-44.59223397 261.65624338 -44.5906122 255.9737259 -44.61668587 250.29050255 C-44.6209889 247.64646012 -44.59653883 245.00371468 -44.57115173 242.3598175 C-44.5593975 228.91388249 -47.11675435 216.97193415 -56.1875 206.4375 C-65.92828539 197.01516336 -76.89697822 194.47103604 -90 193.875 C-90.88365234 193.83181641 -91.76730469 193.78863281 -92.67773438 193.74414062 C-94.84749623 193.63858464 -97.0174791 193.53758929 -99.1875 193.4375 C-99.42597656 194.25347656 -99.66445313 195.06945312 -99.91015625 195.91015625 C-101.44344838 200.14429324 -103.47688122 203.92689295 -105.625 207.875 C-117.49750406 229.14316026 -117.49750406 229.14316026 -124.4765625 252.234375 C-126.79297091 262.67094034 -132.74171941 271.92943806 -141.1875 278.4375 C-153.80022578 286.45905499 -167.42403321 289.89686459 -182.2890625 286.7890625 C-197.01943623 281.82233706 -205.99264854 272.82171125 -213.1875 259.4375 C-215.53760907 254.3099893 -215.81258607 249.00811995 -215.1875 243.4375 C-213.50981974 239.1935052 -211.27246491 237.5171185 -207.1875 235.4375 C-203.2765189 234.59841678 -199.90889434 234.60479298 -196.265625 236.3671875 C-191.27610422 240.09828932 -189.29088086 245.11575073 -186.73046875 250.6484375 C-184.03919204 255.51317565 -180.44518463 257.68493846 -175.1875 259.4375 C-169.28777012 260.14732943 -165.06143684 259.36513041 -159.9140625 256.41015625 C-158.1875 255.4375 -158.1875 255.4375 -155.1875 254.4375 C-154.04540183 252.65521064 -154.04540183 252.65521064 -153.1875 250.4375 C-152.84362999 249.70082187 -152.49975998 248.96414373 -152.14546967 248.20514202 C-151.0207174 244.95565329 -150.93127258 242.34312706 -150.92248535 238.90522766 C-150.91810408 238.26280992 -150.91372281 237.62039218 -150.90920877 236.95850724 C-150.89692382 234.81381931 -150.89869449 232.66937716 -150.90039062 230.5246582 C-150.89436392 228.98351175 -150.88743904 227.44236859 -150.87968445 225.90122986 C-150.8648077 222.58532561 -150.8560492 219.26948146 -150.85197449 215.95354652 C-150.84525023 210.70376726 -150.82348132 205.45411605 -150.79943848 200.20439148 C-150.75048577 189.05295771 -150.71818063 177.90149673 -150.6875 166.75 C-150.65438533 154.72737103 -150.61833215 142.70479222 -150.56336927 130.68224019 C-150.54010808 125.47074257 -150.52630133 120.25933358 -150.51987457 115.04778922 C-150.51390643 111.79466953 -150.49978406 108.54162097 -150.48353004 105.28853798 C-150.47768872 103.78822765 -150.47517456 102.2878998 -150.47636986 100.78757858 C-150.48091415 92.80396291 -150.20818826 85.20347053 -148.1875 77.4375 C-147.7234375 75.643125 -147.7234375 75.643125 -147.25 73.8125 C-143.46440114 61.78765657 -137.80744903 48.81748755 -129.1875 39.4375 C-128.5275 39.4375 -127.8675 39.4375 -127.1875 39.4375 C-126.96578125 38.88449219 -126.7440625 38.33148438 -126.515625 37.76171875 C-117.5079683 21.99831952 -95.01285155 12.37033897 -78.71875 7.33203125 C-76.97078125 6.88923828 -76.97078125 6.88923828 -75.1875 6.4375 C-74.50042969 6.25872314 -73.81335938 6.07994629 -73.10546875 5.89575195 C-62.05089702 3.43954777 -50.47591826 4.05236365 -39.21191406 3.98120117 C-25.12747102 4.02807608 -25.12747102 4.02807608 -11.43505859 1.11645508 C-7.64779355 -0.02762314 -3.93023708 -0.0506202 0 0 Z " transform="translate(488.1875,217.5625)" style="fill: #2D4427;"/><path d="M0 0 C3.65671794 2.05979682 6.82742347 4.89598214 8 9 C8.46225901 13.77667642 8.49973779 16.01903323 6.3125 20.3125 C3.19764871 23.93246231 1.23925869 25.69602823 -3.58984375 26.3515625 C-8.54154481 26.60413249 -11.12176589 26.65437052 -15.1875 23.625 C-17 21 -17 21 -17 19 C-17.66 19 -18.32 19 -19 19 C-19.82545713 14.52463 -20.36031587 11.06093007 -18.875 6.6875 C-13.86828953 -0.488785 -8.20757192 -2.05889603 0 0 Z " transform="translate(398,300)" style="fill: #2E4228;"/><path d="M0 0 C0.33 0 0.66 0 1 0 C1.33 14.85 1.66 29.7 2 45 C20.48 45.33 38.96 45.66 58 46 C58.33 46.66 58.66 47.32 59 48 C58.34 48.99 57.68 49.98 57 51 C56.34 51 55.68 51 55 51 C55 50.01 55 49.02 55 48 C37.18 48 19.36 48 1 48 C-0.18695418 45.62609164 -0.12075833 44.19755049 -0.11352539 41.55029297 C-0.11344986 40.62948944 -0.11337433 39.70868591 -0.11329651 38.75997925 C-0.10813522 37.76410797 -0.10297394 36.76823669 -0.09765625 35.7421875 C-0.0962413 34.72399933 -0.09482635 33.70581116 -0.09336853 32.6567688 C-0.087759 29.39614965 -0.07520488 26.13559849 -0.0625 22.875 C-0.05748623 20.66796974 -0.05292311 18.46093841 -0.04882812 16.25390625 C-0.03778648 10.83591419 -0.02103905 5.41796195 0 0 Z " transform="translate(470,468)" style="fill: #24351E;"/><path d="M0 0 C1.32 0.99 2.64 1.98 4 3 C4 3.66 4 4.32 4 5 C3.01 5.495 3.01 5.495 2 6 C1.67 39.66 1.34 73.32 1 108 C0.67 108 0.34 108 0 108 C0 72.36 0 36.72 0 0 Z " transform="translate(749,421)" style="fill: #DDE5D6;"/><path d="M0 0 C18.48 0 36.96 0 56 0 C54.35 1.32 52.7 2.64 51 4 C51 3.34 51 2.68 51 2 C34.5 2 18 2 1 2 C0.67 1.34 0.34 0.68 0 0 Z " transform="translate(665,514)" style="fill: #23331D;"/><path d="M0 0 C0.78673096 -0.00515625 1.57346191 -0.0103125 2.3840332 -0.015625 C7.92492515 0.04905243 13.01787574 0.91856254 18.375 2.3125 C18.375 3.3025 18.375 4.2925 18.375 5.3125 C11.375 4.3125 11.375 4.3125 8.296875 3.7109375 C2.38468811 3.110297 -3.27580327 3.99671913 -9.15039062 4.72851562 C-10.05337891 4.82970703 -10.95636719 4.93089844 -11.88671875 5.03515625 C-12.70100342 5.13578369 -13.51528809 5.23641113 -14.35424805 5.34008789 C-16.95724412 5.30846349 -18.41134421 4.63422284 -20.625 3.3125 C-13.77225579 0.72539657 -7.25690123 0.01135999 0 0 Z " transform="translate(488.625,217.6875)" style="fill: #394834;"/><path d="M0 0 C0.8971875 0.3403125 0.8971875 0.3403125 1.8125 0.6875 C0.27905882 3.75438236 -1.25513538 6.82016939 -2.8125 9.875 C-4.25398591 12.66599566 -4.25398591 12.66599566 -5.1875 15.6875 C-5.8475 16.3475 -6.5075 17.0075 -7.1875 17.6875 C-8.27745439 11.77810874 -8.67517423 7.91901135 -5.1875 2.6875 C-2.8875 -0.4125 -2.8875 -0.4125 0 0 Z " transform="translate(386.1875,301.3125)" style="fill: #3A4837;"/><path d="M0 0 C5.04806914 0.35991718 7.52239866 3.04398041 10.8125 6.5625 C11.31458984 7.08263672 11.81667969 7.60277344 12.33398438 8.13867188 C13.56529127 9.4168857 14.7839407 10.70727147 16 12 C15.01 12.495 15.01 12.495 14 13 C13.67 13.66 13.34 14.32 13 15 C10 11.25 10 11.25 10 9 C9.01 9.33 8.02 9.66 7 10 C5 8 5 8 5 6 C3.900237 4.43733479 3.900237 4.43733479 2.5 2.875 C1.675 1.92625 0.85 0.9775 0 0 Z " transform="translate(703,258)" style="fill: #384833;"/><path d="M0 0 C2 1 2 1 3 4 C2.0625 6.1875 2.0625 6.1875 1 8 C1 7.01 1 6.02 1 5 C0.401875 5.66 -0.19625 6.32 -0.8125 7 C-3 9 -3 9 -6 9 C-4.83857315 4.64464931 -3.92300495 2.35380297 0 0 Z " transform="translate(279,454)" style="fill: #354431;"/><path d="M0 0 C1.23556641 0.01740234 1.23556641 0.01740234 2.49609375 0.03515625 C3.32238281 0.04417969 4.14867187 0.05320312 5 0.0625 C5.63808594 0.07410156 6.27617187 0.08570313 6.93359375 0.09765625 C7.26359375 1.74765625 7.59359375 3.39765625 7.93359375 5.09765625 C5.62359375 5.42765625 3.31359375 5.75765625 0.93359375 6.09765625 C0.93359375 5.43765625 0.93359375 4.77765625 0.93359375 4.09765625 C-1.02643435 2.46089368 -1.02643435 2.46089368 -3.06640625 1.09765625 C-2.06640625 0.09765625 -2.06640625 0.09765625 0 0 Z " transform="translate(392.06640625,361.90234375)" style="fill: #293B23;"/><path d="M0 0 C1.28571429 8.42857143 1.28571429 8.42857143 0 13 C-0.66 13 -1.32 13 -2 13 C-2.66 13.99 -3.32 14.98 -4 16 C-4.17835515 11.45194365 -3.99785435 8.1205746 -2 4 C-2.66 4 -3.32 4 -4 4 C-2.66666667 0 -2.66666667 0 0 0 Z " transform="translate(751,352)" style="fill: #374B32;"/><path d="M0 0 C1.65 0 3.3 0 5 0 C5 3 5 3 3.50390625 4.82421875 C2.86324219 5.43910156 2.22257812 6.05398438 1.5625 6.6875 C0.92441406 7.31011719 0.28632813 7.93273437 -0.37109375 8.57421875 C-2 10 -2 10 -3 10 C-3.1875 7.6875 -3.1875 7.6875 -3 5 C-1.5 3.3125 -1.5 3.3125 0 2 C0 1.34 0 0.68 0 0 Z " transform="translate(385,263)" style="fill: #364934;"/><path d="M0 0 C0.33 0 0.66 0 1 0 C1.02696365 1.79158489 1.04637917 3.58328473 1.0625 5.375 C1.07410156 6.37273437 1.08570313 7.37046875 1.09765625 8.3984375 C1 11 1 11 0 13 C-0.66 13 -1.32 13 -2 13 C-2.33 13.66 -2.66 14.32 -3 15 C-4.43410153 11.21180727 -3.51009497 8.93478721 -2.0625 5.25 C-1.68222656 4.26515625 -1.30195312 3.2803125 -0.91015625 2.265625 C-0.60980469 1.51796875 -0.30945313 0.7703125 0 0 Z " transform="translate(785,420)" style="fill: #364232;"/><path d="M0 0 C0.99 0.33 1.98 0.66 3 1 C3 1.99 3 2.98 3 4 C3.66 4 4.32 4 5 4 C4.40049704 7.68266103 3.75241109 11.34543185 3 15 C2.67 15 2.34 15 2 15 C0.73694665 9.92523206 -0.27036084 5.27203646 0 0 Z " transform="translate(339,297)" style="fill: #374831;"/><path d="M0 0 C1.32 0.99 2.64 1.98 4 3 C4 3.66 4 4.32 4 5 C3.01 5.495 3.01 5.495 2 6 C1.67 12.93 1.34 19.86 1 27 C0.67 27 0.34 27 0 27 C0 18.09 0 9.18 0 0 Z " transform="translate(749,421)" style="fill: #E9EEE6;"/><path d="M0 0 C0.91007812 0.00902344 1.82015625 0.01804688 2.7578125 0.02734375 C3.45648438 0.03894531 4.15515625 0.05054688 4.875 0.0625 C4.545 1.3825 4.215 2.7025 3.875 4.0625 C1.565 4.3925 -0.745 4.7225 -3.125 5.0625 C-3.455 4.4025 -3.785 3.7425 -4.125 3.0625 C-5.115 2.4025 -6.105 1.7425 -7.125 1.0625 C-4.60024538 -0.19987731 -2.81299534 -0.03606404 0 0 Z " transform="translate(414.125,224.9375)" style="fill: #3B4A38;"/><path d="M0 0 C0.99 0 1.98 0 3 0 C3 0.66 3 1.32 3 2 C3.66 2 4.32 2 5 2 C5 2.66 5 3.32 5 4 C5.99 4.33 6.98 4.66 8 5 C8 5.66 8 6.32 8 7 C8.99 7.33 9.98 7.66 11 8 C10.67 8.99 10.34 9.98 10 11 C8.8944811 10.06409496 7.79064547 9.12620142 6.6875 8.1875 C6.07261719 7.66542969 5.45773437 7.14335937 4.82421875 6.60546875 C1.48047722 3.6626898 1.48047722 3.6626898 0 2 C0 1.34 0 0.68 0 0 Z " transform="translate(753,424)" style="fill: #3A4836;"/><path d="M0 0 C2 3 2 3 1.7578125 5.48046875 C1.54898437 6.37378906 1.34015625 7.26710938 1.125 8.1875 C0.92132813 9.08855469 0.71765625 9.98960937 0.5078125 10.91796875 C0.34023438 11.60503906 0.17265625 12.29210937 0 13 C-1.32 13.33 -2.64 13.66 -4 14 C-3.46148032 8.72250715 -2.22656164 4.74354436 0 0 Z " transform="translate(367,292)" style="fill: #33462F;"/><path d="M0 0 C0.66 0.33 1.32 0.66 2 1 C2 3.31 2 5.62 2 8 C0.02 8.99 0.02 8.99 -2 10 C-3.32 8.68 -4.64 7.36 -6 6 C-5.01 5.67 -4.02 5.34 -3 5 C-2.67 4.67 -2.34 4.34 -2 4 C-1.34 4 -0.68 4 0 4 C0 2.68 0 1.36 0 0 Z " transform="translate(780,428)" style="fill: #34452F;"/><path d="M0 0 C2.66130399 1.01755741 3.80516056 1.66684861 5.265625 4.1640625 C5.59046875 4.97617187 5.9153125 5.78828125 6.25 6.625 C6.58515625 7.44226563 6.9203125 8.25953125 7.265625 9.1015625 C7.62914062 10.04128906 7.62914062 10.04128906 8 11 C5.69 10.34 3.38 9.68 1 9 C1.226875 8.401875 1.45375 7.80375 1.6875 7.1875 C1.790625 6.465625 1.89375 5.74375 2 5 C0.64555699 3.22809091 0.64555699 3.22809091 -1 2 C-0.67 1.34 -0.34 0.68 0 0 Z " transform="translate(730,290)" style="fill: #344632;"/><path d="M0 0 C0.66 0.33 1.32 0.66 2 1 C0.14285714 8.57142857 0.14285714 8.57142857 -3 11 C-3 9.68 -3 8.36 -3 7 C-3.2981424 5.65835921 -3.62243192 4.32148827 -4 3 C-2.68 2.67 -1.36 2.34 0 2 C0 1.34 0 0.68 0 0 Z " transform="translate(378,271)" style="fill: #33462F;"/><path d="M0 0 C2.8203125 -0.29296875 2.8203125 -0.29296875 6.125 -0.1875 C7.76855469 -0.14689453 7.76855469 -0.14689453 9.4453125 -0.10546875 C10.28835938 -0.07066406 11.13140625 -0.03585938 12 0 C12 0.99 12 1.98 12 3 C11.67 2.34 11.34 1.68 11 1 C9.68 1.33 8.36 1.66 7 2 C7 2.66 7 3.32 7 4 C4.03 3.67 1.06 3.34 -2 3 C-1.34 2.01 -0.68 1.02 0 0 Z " transform="translate(634,250)" style="fill: #344932;"/><path d="M0 0 C1.32 0.66 2.64 1.32 4 2 C4 2.66 4 3.32 4 4 C5.45833358 5.62514468 5.45833358 5.62514468 7 7 C4.1875 7.6875 4.1875 7.6875 1 8 C-0.875 6.5625 -0.875 6.5625 -2 5 C-1.34 3.35 -0.68 1.7 0 0 Z " transform="translate(558,243)" style="fill: #334730;"/><path d="M0 0 C2.96404505 2.80804268 5.44499019 5.18315774 7 9 C6.01 9.495 6.01 9.495 5 10 C4.566875 9.54625 4.13375 9.0925 3.6875 8.625 C1.89201658 6.79975666 1.89201658 6.79975666 -1 5 C-1 2 -1 2 0 0 Z " transform="translate(452,405)" style="fill: #364633;"/><path d="M0 0 C0.99 0 1.98 0 3 0 C3.65234375 1.765625 3.65234375 1.765625 4 4 C3.00390625 5.921875 3.00390625 5.921875 1.5625 7.75 C1.08941406 8.36359375 0.61632812 8.9771875 0.12890625 9.609375 C-0.24363281 10.06828125 -0.61617187 10.5271875 -1 11 C-1.66 10.67 -2.32 10.34 -3 10 C-2.34 8.02 -1.68 6.04 -1 4 C-0.34 4 0.32 4 1 4 C0.67 2.68 0.34 1.36 0 0 Z " transform="translate(517,360)" style="fill: #354732;"/><path d="M0 0 C0.66 0.66 1.32 1.32 2 2 C-0.31 4.31 -2.62 6.62 -5 9 C-5.66 7.68 -6.32 6.36 -7 5 C-6.01 4.67 -5.02 4.34 -4 4 C-4 3.34 -4 2.68 -4 2 C-2.68 1.34 -1.36 0.68 0 0 Z " transform="translate(463,252)" style="fill: #394A37;"/><path d="M0 0 C0 3 0 3 -1 6 C-0.34 6 0.32 6 1 6 C0 8 0 8 -3 9 C-3.66 8.67 -4.32 8.34 -5 8 C-5 7.34 -5 6.68 -5 6 C-5.66 5.67 -6.32 5.34 -7 5 C-6.030625 4.360625 -5.06125 3.72125 -4.0625 3.0625 C-1.23963731 1.3034741 -1.23963731 1.3034741 0 0 Z " transform="translate(745,535)" style="fill: #E2E6E2;"/><path d="M0 0 C0.66 0.33 1.32 0.66 2 1 C2.86159454 4.23097953 3.30597523 6.22486274 2.0625 9.375 C1.711875 9.91125 1.36125 10.4475 1 11 C0.01 10.67 -0.98 10.34 -2 10 C-1.34 6.7 -0.68 3.4 0 0 Z " transform="translate(742,315)" style="fill: #374933;"/><path d="M0 0 C0.99 0.33 1.98 0.66 3 1 C2.67 2.32 2.34 3.64 2 5 C1.34 5 0.68 5 0 5 C0 5.66 0 6.32 0 7 C-3.3 6.01 -6.6 5.02 -10 4 C-10 3.67 -10 3.34 -10 3 C-7.03 3 -4.06 3 -1 3 C-0.67 2.01 -0.34 1.02 0 0 Z " transform="translate(423,409)" style="fill: #394A36;"/><path d="M0 0 C0.99 1.32 1.98 2.64 3 4 C1.35 5.98 -0.3 7.96 -2 10 C-2.99 9.67 -3.98 9.34 -5 9 C-3.35 6.03 -1.7 3.06 0 0 Z " transform="translate(352,267)" style="fill: #394734;"/><path d="M0 0 C1.5625 1.75 1.5625 1.75 3 4 C2.6875 6.25 2.6875 6.25 2 8 C0 8 0 8 -2 6 C-2.99 6 -3.98 6 -5 6 C-3.35 4.02 -1.7 2.04 0 0 Z " transform="translate(518,367)" style="fill: #EAEDEB;"/><path d="M0 0 C2 1 2 1 3 3 C2.21625 3.433125 1.4325 3.86625 0.625 4.3125 C-2.21698375 5.89220247 -2.21698375 5.89220247 -4 9 C-4.66 8.67 -5.32 8.34 -6 8 C-4.55746343 4.63408134 -2.66735273 2.48952921 0 0 Z " transform="translate(388,362)" style="fill: #3E4C39;"/><path d="M0 0 C3 4 3 4 3 7 C2.34 7 1.68 7 1 7 C1 8.32 1 9.64 1 11 C0.01 10.67 -0.98 10.34 -2 10 C-1.34 6.7 -0.68 3.4 0 0 Z " transform="translate(516,303)" style="fill: #374531;"/><path d="M0 0 C4.51617599 -0.07654536 8.59085217 -0.10228696 13 1 C13 1.66 13 2.32 13 3 C8.07872966 3.16682272 4.49656104 3.24828052 0 1 C0 0.67 0 0.34 0 0 Z " transform="translate(477,387)" style="fill: #22341F;"/><path d="M0 0 C0.66 0.66 1.32 1.32 2 2 C-0.40545638 3.20272819 -1.94996953 3.10071472 -4.625 3.0625 C-5.85089844 3.04896484 -5.85089844 3.04896484 -7.1015625 3.03515625 C-8.04128906 3.01775391 -8.04128906 3.01775391 -9 3 C-9 2.34 -9 1.68 -9 1 C-5.98675805 -0.50662097 -3.31713623 -0.17770373 0 0 Z " transform="translate(446,270)" style="fill: #304131;"/><path d="M0 0 C1.1725131 0.95117134 2.33787015 1.91117009 3.5 2.875 C4.1496875 3.40867187 4.799375 3.94234375 5.46875 4.4921875 C5.9740625 4.98976563 6.479375 5.48734375 7 6 C7 6.66 7 7.32 7 8 C6.01 8.33 5.02 8.66 4 9 C0 3.375 0 3.375 0 0 Z " transform="translate(755,428)" style="fill: #F0F1ED;"/><path d="M0 0 C2.39073445 3.82517513 2.55966552 7.59665524 3 12 C2.34 12 1.68 12 1 12 C0.44191911 10.56879256 -0.09596462 9.12969645 -0.625 7.6875 C-0.92664063 6.88699219 -1.22828125 6.08648437 -1.5390625 5.26171875 C-1.69117188 4.51535156 -1.84328125 3.76898438 -2 3 C-1.34 2.01 -0.68 1.02 0 0 Z " transform="translate(542,257)" style="fill: #455342;"/><path d="M0 0 C0 4.95 0 9.9 0 15 C-0.33 15 -0.66 15 -1 15 C-1 12.36 -1 9.72 -1 7 C-1.66 7 -2.32 7 -3 7 C-3.125 4.625 -3.125 4.625 -3 2 C-1 0 -1 0 0 0 Z " transform="translate(748,511)" style="fill: #273B21;"/><path d="M0 0 C3.40424844 1.13474948 4.21653709 1.96811304 6 5 C5.67 5.99 5.34 6.98 5 8 C3 6.625 3 6.625 1 5 C1 4.34 1 3.68 1 3 C0.34 3 -0.32 3 -1 3 C-0.67 2.01 -0.34 1.02 0 0 Z " transform="translate(452,402)" style="fill: #ECEEEA;"/><path d="M0 0 C1.9451 2.91765 2.45276317 4.62537285 3 8 C1.515 8.99 1.515 8.99 0 10 C-1.36952673 7.26094655 -1.12621361 5.02912668 -1 2 C-0.67 1.34 -0.34 0.68 0 0 Z " transform="translate(757,379)" style="fill: #404E3C;"/><path d="M0 0 C0.33 0 0.66 0 1 0 C1 4.29 1 8.58 1 13 C0.34 13 -0.32 13 -1 13 C-1.2236337 11.58566794 -1.42826476 10.16832382 -1.625 8.75 C-1.74101563 7.96109375 -1.85703125 7.1721875 -1.9765625 6.359375 C-2.00319395 3.67847541 -1.36592084 2.27305911 0 0 Z " transform="translate(544,271)" style="fill: #273920;"/><path d="M0 0 C2.62506802 -0.02690844 5.24986173 -0.04679404 7.875 -0.0625 C8.62136719 -0.07087891 9.36773437 -0.07925781 10.13671875 -0.08789062 C15.7734375 -0.11328125 15.7734375 -0.11328125 18 1 C18 1.66 18 2.32 18 3 C12.06 2.34 6.12 1.68 0 1 C0 0.67 0 0.34 0 0 Z " transform="translate(484,245)" style="fill: #606D5E;"/><path d="M0 0 C2.0625 1.6875 2.0625 1.6875 4 4 C3.75 6.75 3.75 6.75 3 9 C2.01 8.67 1.02 8.34 0 8 C-1.22393475 5.04215769 -0.96516243 3.00272755 0 0 Z " transform="translate(554,239)" style="fill: #273A23;"/><path d="M0 0 C2.97 0.33 5.94 0.66 9 1 C5.55549263 3.29633824 3.06187717 3.54016485 -1 4 C-0.67 2.68 -0.34 1.36 0 0 Z " transform="translate(470,217)" style="fill: #E7E9E5;"/><path d="M0 0 C1.98 0 3.96 0 6 0 C6 0.66 6 1.32 6 2 C6.66 2 7.32 2 8 2 C7.67 3.32 7.34 4.64 7 6 C5.83054208 5.19152271 4.66449539 4.37810888 3.5 3.5625 C2.8503125 3.11003906 2.200625 2.65757812 1.53125 2.19140625 C1.0259375 1.79824219 0.520625 1.40507812 0 1 C0 0.67 0 0.34 0 0 Z " transform="translate(675,268)" style="fill: #3C4B39;"/><path d="M0 0 C8.14385151 -0.62645012 8.14385151 -0.62645012 11.5625 1.875 C13 4 13 4 13 6 C12.34 6 11.68 6 11 6 C11 5.34 11 4.68 11 4 C10.01 3.67 9.02 3.34 8 3 C8 2.34 8 1.68 8 1 C5.36 1 2.72 1 0 1 C0 0.67 0 0.34 0 0 Z " transform="translate(281,453)" style="fill: #505E4D;"/><path d="M0 0 C0.66 0.33 1.32 0.66 2 1 C2 1.99 2 2.98 2 4 C1.34 4 0.68 4 0 4 C0 4.66 0 5.32 0 6 C-2.31 5.67 -4.62 5.34 -7 5 C-4.702779 3.25728062 -2.40133271 1.60088848 0 0 Z " transform="translate(343,497)" style="fill: #DADED8;"/><path d="M0 0 C0.598125 0.309375 1.19625 0.61875 1.8125 0.9375 C4.08956772 2.10209704 4.08956772 2.10209704 7 3 C6.67 3.66 6.34 4.32 6 5 C3.4375 5.625 3.4375 5.625 1 6 C0.34 5.01 -0.32 4.02 -1 3 C-0.67 2.01 -0.34 1.02 0 0 Z " transform="translate(470,352)" style="fill: #34482F;"/><path d="M0 0 C0.66 1.32 1.32 2.64 2 4 C2.66 4 3.32 4 4 4 C4.33 4.99 4.66 5.98 5 7 C4.34 7.66 3.68 8.32 3 9 C0.9375 6.75 0.9375 6.75 -1 4 C-0.75 1.6875 -0.75 1.6875 0 0 Z " transform="translate(508,248)" style="fill: #334330;"/><path d="M0 0 C0.99 0.33 1.98 0.66 3 1 C2.34 3.64 1.68 6.28 1 9 C-1 6 -1 6 -0.625 2.8125 C-0.41875 1.884375 -0.2125 0.95625 0 0 Z " transform="translate(469,428)" style="fill: #EFF0EE;"/><path d="M0 0 C-1.375 2.5 -1.375 2.5 -3 5 C-3.66 5 -4.32 5 -5 5 C-5.33 5.66 -5.66 6.32 -6 7 C-6 6.01 -6 5.02 -6 4 C-5.34 4 -4.68 4 -4 4 C-4.33 2.68 -4.66 1.36 -5 0 C-3 -1 -3 -1 0 0 Z " transform="translate(512,374)" style="fill: #394B38;"/><path d="M0 0 C3.3 0 6.6 0 10 0 C10 0.99 10 1.98 10 3 C3.375 2.25 3.375 2.25 0 0 Z " transform="translate(457,347)" style="fill: #43533F;"/><path d="M0 0 C0.33 0 0.66 0 1 0 C1 3.63 1 7.26 1 11 C0.01 10.34 -0.98 9.68 -2 9 C-2.47446226 5.39408679 -1.83832664 3.10217621 0 0 Z " transform="translate(785,420)" style="fill: #43503E;"/><path d="M0 0 C2.475 0.99 2.475 0.99 5 2 C3.71034824 3.37562854 2.37310707 4.70766393 1 6 C0.34 6 -0.32 6 -1 6 C-0.67 4.02 -0.34 2.04 0 0 Z " transform="translate(498,381)" style="fill: #354933;"/><path d="M0 0 C1.65 0 3.3 0 5 0 C5.33 0.99 5.66 1.98 6 3 C5.34 3 4.68 3 4 3 C3.67 3.66 3.34 4.32 3 5 C1.68 4.01 0.36 3.02 -1 2 C-0.67 1.34 -0.34 0.68 0 0 Z " transform="translate(481,356)" style="fill: #ECEEEA;"/><path d="M0 0 C2.3431213 0.25561323 4.67843403 0.59270772 7 1 C7.33 1.66 7.66 2.32 8 3 C6.8553125 2.9690625 6.8553125 2.9690625 5.6875 2.9375 C2.89814214 2.87057159 2.89814214 2.87057159 0 4 C-0.66 3.34 -1.32 2.68 -2 2 C-1.34 2 -0.68 2 0 2 C0 1.34 0 0.68 0 0 Z " transform="translate(403,251)" style="fill: #314532;"/><path d="M0 0 C1.65 0.33 3.3 0.66 5 1 C4.01 1.33 3.02 1.66 2 2 C1.26676204 4.01508358 1.26676204 4.01508358 1 6 C-0.65 5.67 -2.3 5.34 -4 5 C-3.01 4.34 -2.02 3.68 -1 3 C-0.67 2.01 -0.34 1.02 0 0 Z " transform="translate(665,233)" style="fill: #41543D;"/><path d="M0 0 C0.99 0.33 1.98 0.66 3 1 C3.33 1.99 3.66 2.98 4 4 C2.02 4.66 0.04 5.32 -2 6 C-2.33 5.34 -2.66 4.68 -3 4 C-2.505 3.525625 -2.01 3.05125 -1.5 2.5625 C0.11542197 1.24076302 0.11542197 1.24076302 0 0 Z " transform="translate(393,226)" style="fill: #F5F6F4;"/><path d="M0 0 C1.98 0.99 1.98 0.99 4 2 C3.67 3.98 3.34 5.96 3 8 C2.34 7.67 1.68 7.34 1 7 C0.59270772 4.67843403 0.25561323 2.3431213 0 0 Z " transform="translate(380,417)" style="fill: #384A33;"/><path d="M0 0 C1.9375 0.8125 1.9375 0.8125 4 2 C4.33 2.99 4.66 3.98 5 5 C0.25 4.25 0.25 4.25 -2 2 C-1.34 2 -0.68 2 0 2 C0 1.34 0 0.68 0 0 Z " transform="translate(724,280)" style="fill: #344632;"/><path d="M0 0 C1.625 2.5 1.625 2.5 3 5 C2.34 5.66 1.68 6.32 1 7 C-0.95216435 5.04783565 -1.84826645 3.46800047 -3 1 C-2 0 -2 0 0 0 Z " transform="translate(531,235)" style="fill: #374733;"/><path d="M0 0 C1.32 0 2.64 0 4 0 C4.33 1.32 4.66 2.64 5 4 C2.03 3.505 2.03 3.505 -1 3 C-0.67 2.01 -0.34 1.02 0 0 Z " transform="translate(303,500)" style="fill: #354633;"/><path d="M0 0 C1.32 0.66 2.64 1.32 4 2 C3.67 2.66 3.34 3.32 3 4 C0.4375 4.625 0.4375 4.625 -2 5 C-1.34 3.35 -0.68 1.7 0 0 Z " transform="translate(331,472)" style="fill: #3A4B37;"/><path d="M0 0 C0.99 0.99 1.98 1.98 3 3 C2.01 3.99 1.02 4.98 0 6 C-0.99 5.67 -1.98 5.34 -3 5 C-2.01 3.35 -1.02 1.7 0 0 Z " transform="translate(500,345)" style="fill: #384835;"/><path d="M0 0 C1 3 1 3 0.0625 5.1875 C-0.4634375 6.0846875 -0.4634375 6.0846875 -1 7 C-1.99 6.34 -2.98 5.68 -4 5 C-3 2 -3 2 0 0 Z " transform="translate(378,240)" style="fill: #324530;"/></svg>
